{"accessors" : [{"bufferView" : 0, "byteOffset" : 0, "componentType" : 5125, "count" : 75000, "type" : "SCALAR", "max" : [74999], "min" : [0]}, {"bufferView" : 1, "byteOffset" : 0, "componentType" : 5126, "count" : 75000, "type" : "VEC3", "max" : [0.04113924503326416, 0.05472015589475632, 0.11568145453929901], "min" : [-0.05294647812843323, 6.672173924471281E-10, -0.10556246340274811], "name" : "POSITION"}, {"bufferView" : 1, "byteOffset" : 12, "componentType" : 5126, "count" : 75000, "type" : "VEC3", "max" : [0.999931812286377, 0.9998331665992737, 0.9992173314094543], "min" : [-0.9999260306358337, -1.0000044107437134, -0.9991297721862793], "name" : "NORMAL"}, {"bufferView" : 1, "byteOffset" : 24, "componentType" : 5126, "count" : 75000, "type" : "VEC2", "max" : [0.9973127841949463, 0.9999216794967651], "min" : [0.00012613757280632854, 4.9114227294921875E-05], "name" : "TEXCOORD_0"}], "asset" : {"generator" : "Aspose.3D 24.6.0", "version" : "2.0"}, "buffers" : [{"uri" : "buffer.bin", "byteLength" : 4565480}], "bufferViews" : [{"buffer" : 0, "byteOffset" : 0, "byteLength" : 300000, "target" : 34963}, {"buffer" : 0, "byteOffset" : 300004, "byteLength" : 2400000, "byteStride" : 32, "target" : 34962}, {"buffer" : 0, "byteOffset" : 2700008, "byteLength" : 625309}, {"buffer" : 0, "byteOffset" : 3325320, "byteLength" : 361006}, {"buffer" : 0, "byteOffset" : 3686328, "byteLength" : 879150}], "images" : [{"mimeType" : "image/jpeg", "bufferView" : 2}, {"mimeType" : "image/jpeg", "bufferView" : 3}, {"mimeType" : "image/jpeg", "bufferView" : 4}], "materials" : [{"name" : "Texture", "pbrMetallicRoughness" : {"baseColorFactor" : [1, 1, 1, 1], "baseColorTexture" : {"index" : 2, "texCoord" : 0}, "metallicFactor" : 0, "roughnessFactor" : 0.8999999761581421}, "normalTexture" : {"index" : 0, "texCoord" : 0, "scale" : 1}, "occlusionTexture" : {"index" : 1, "texCoord" : 0, "strength" : 0}, "emissiveFactor" : [0, 0, 0], "alphaMode" : "OPAQUE", "doubleSided" : false}], "meshes" : [{"primitives" : [{"attributes" : {"POSITION" : 1, "NORMAL" : 2, "TEXCOORD_0" : 3}, "indices" : 0, "material" : 0, "mode" : 4}], "name" : "Mesh"}], "nodes" : [{"mesh" : 0, "name" : "ObjectCapture"}, {"children" : [0], "name" : "untitleuud"}], "samplers" : [{"magFilter" : 9729, "minFilter" : 9729, "wrapS" : 10497, "wrapT" : 10497}, {"magFilter" : 9729, "minFilter" : 9729, "wrapS" : 10497, "wrapT" : 10497}, {"magFilter" : 9729, "minFilter" : 9729, "wrapS" : 10497, "wrapT" : 10497}], "scene" : 0, "scenes" : [{"nodes" : [1]}], "textures" : [{"sampler" : 0, "source" : 0, "name" : "normal_texture"}, {"sampler" : 1, "source" : 1, "name" : "occlusion_texture"}, {"sampler" : 2, "source" : 2, "name" : "diffuseColor_texture"}]}